<?xml version="1.0" encoding="utf-8"?>
<!-- Generator: Adobe Illustrator 23.0.1, SVG Export Plug-In . SVG Version: 6.00 Build 0)  -->
<svg version="1.1" id="圖層_1" xmlns="http://www.w3.org/2000/svg" xmlns:xlink="http://www.w3.org/1999/xlink" x="0px" y="0px"
	 viewBox="0 0 23.3 23.3" style="enable-background:new 0 0 23.3 23.3;" xml:space="preserve">
<style type="text/css">
	.st0{fill:none;stroke:#000000;stroke-miterlimit:10;}
</style>
<path d="M19.7,18.9h2.2V17h-4.2c-0.4,0-0.8,0.3-0.8,0.8v4.2h1.9v-2.2C18.9,19.3,19.3,18.9,19.7,18.9z"/>
<path d="M4.4,19.7v2.2h1.9v-4.2C6.3,17.3,6,17,5.5,17H1.4v1.9h2.2C4,18.9,4.4,19.3,4.4,19.7z"/>
<path d="M1.4,4.4v1.9h4.2C6,6.3,6.4,6,6.4,5.5V1.4H4.4v2.2c0,0.4-0.3,0.8-0.8,0.8H1.4z"/>
<path d="M18.9,3.6V1.4H17v4.2c0,0.4,0.3,0.8,0.8,0.8h4.2V4.4h-2.2C19.3,4.4,18.9,4,18.9,3.6z"/>
<path class="st0" d="M17,14.1V9.2c0-0.4-0.2-0.8-0.6-1l-4.2-2.4c-0.4-0.2-0.8-0.2-1.2,0L6.8,8.2c-0.4,0.2-0.6,0.6-0.6,1v4.9
	c0,0.4,0.2,0.8,0.6,1l4.2,2.4c0.4,0.2,0.8,0.2,1.2,0l4.2-2.4C16.8,14.9,17,14.5,17,14.1z"/>
<polyline class="st0" points="6.3,8.5 11.6,11.6 17,8.5 "/>
<line class="st0" x1="11.6" y1="17.9" x2="11.6" y2="11.6"/>
</svg>
