<svg width="18" height="19" viewBox="0 0 18 19" fill="none" xmlns="http://www.w3.org/2000/svg">
<path d="M17.28 0.5H0.72C0.32175 0.5 0 0.82175 0 1.22V17.78C0 18.1782 0.32175 18.5 0.72 18.5H17.28C17.6782 18.5 18 18.1782 18 17.78V1.22C18 0.82175 17.6782 0.5 17.28 0.5ZM15.201 5.75375H13.7633C12.636 5.75375 12.4178 6.28925 12.4178 7.07675V8.8115H15.1087L14.7578 11.5272H12.4178V18.5H9.612V11.5295H7.26525V8.8115H9.612V6.809C9.612 4.48475 11.0317 3.218 13.1062 3.218C14.1007 3.218 14.9535 3.29225 15.2032 3.326V5.75375H15.201Z" fill="#272727"/>
</svg>
