<svg width="19" height="19" viewBox="0 0 19 19" fill="none" xmlns="http://www.w3.org/2000/svg">
<path d="M9.97006 0.5C4.9995 0.5 0.970062 4.52943 0.970062 9.5C0.970062 14.4706 4.9995 18.5 9.97006 18.5C14.9406 18.5 18.9701 14.4706 18.9701 9.5C18.9701 4.52943 14.9406 0.5 9.97006 0.5ZM6.73569 4.07495C6.92112 4.06401 7.08873 4.17485 7.21579 4.37158L8.44626 6.70506C8.57581 6.98157 8.50219 7.27765 8.30893 7.47521L7.74534 8.03881C7.71055 8.08647 7.68766 8.14016 7.68711 8.1992C7.90324 9.03583 8.55886 9.80754 9.13732 10.3382C9.71575 10.8689 10.3375 11.5875 11.1445 11.7577C11.2443 11.7855 11.3665 11.7955 11.4378 11.7291L12.0926 11.0623C12.3186 10.891 12.6456 10.8079 12.8869 10.948H12.8979L15.1182 12.2587C15.4441 12.463 15.4779 12.8578 15.2446 13.098L13.7153 14.6152C13.4895 14.8468 13.1894 14.9247 12.8979 14.925C11.6087 14.8864 10.3906 14.2537 9.39001 13.6034C7.74766 12.4086 6.24117 10.9267 5.29539 9.13636C4.93266 8.38561 4.50655 7.4277 4.54722 6.58975C4.55085 6.2745 4.63614 5.96567 4.85814 5.76248L6.38743 4.23318C6.50656 4.13181 6.62442 4.08152 6.73569 4.07495Z" fill="#272727"/>
</svg>
