<svg width="98" height="36" viewBox="0 0 98 36" fill="none" xmlns="http://www.w3.org/2000/svg">
<rect x="0.5" width="97" height="36" rx="2" fill="#AA784F" fill-opacity="0.5"/>
<path d="M20.628 20.88C20.628 21.552 20.4627 22.1333 20.132 22.624C19.8013 23.1147 19.3213 23.4933 18.692 23.76C18.0733 24.0267 17.332 24.16 16.468 24.16C16.052 24.16 15.652 24.1333 15.268 24.08C14.8947 24.0373 14.5373 23.968 14.196 23.872C13.8653 23.776 13.556 23.6587 13.268 23.52V21.6C13.748 21.8133 14.276 22.0107 14.852 22.192C15.428 22.3627 16.0147 22.448 16.612 22.448C17.0707 22.448 17.444 22.3893 17.732 22.272C18.0307 22.144 18.2493 21.9733 18.388 21.76C18.5267 21.536 18.596 21.28 18.596 20.992C18.596 20.672 18.5053 20.4 18.324 20.176C18.1427 19.952 17.876 19.744 17.524 19.552C17.172 19.36 16.7347 19.1573 16.212 18.944C15.86 18.7947 15.5133 18.6293 15.172 18.448C14.8413 18.256 14.5427 18.0267 14.276 17.76C14.0093 17.4933 13.796 17.1787 13.636 16.816C13.476 16.4533 13.396 16.0267 13.396 15.536C13.396 14.8853 13.5507 14.3253 13.86 13.856C14.18 13.3867 14.6227 13.0293 15.188 12.784C15.764 12.5387 16.4307 12.416 17.188 12.416C17.796 12.416 18.3667 12.48 18.9 12.608C19.4333 12.736 19.9613 12.9173 20.484 13.152L19.828 14.8C19.3587 14.5973 18.9053 14.4373 18.468 14.32C18.0307 14.2027 17.5827 14.144 17.124 14.144C16.7613 14.144 16.452 14.2027 16.196 14.32C15.94 14.4267 15.748 14.5813 15.62 14.784C15.492 14.9867 15.428 15.2213 15.428 15.488C15.428 15.7973 15.508 16.0587 15.668 16.272C15.828 16.4853 16.0733 16.688 16.404 16.88C16.7453 17.0613 17.1827 17.2693 17.716 17.504C18.3347 17.7707 18.8573 18.048 19.284 18.336C19.7107 18.624 20.0413 18.9707 20.276 19.376C20.5107 19.7813 20.628 20.2827 20.628 20.88ZM26.8809 24H24.8329V14.304H21.5529V12.576H30.1609V14.304H26.8809V24ZM37.8409 24L36.8009 20.976H32.4969L31.4729 24H29.2969L33.4889 12.528H35.8249L40.0169 24H37.8409ZM35.2809 16.272C35.2382 16.1227 35.1742 15.92 35.0889 15.664C35.0035 15.408 34.9182 15.1467 34.8329 14.88C34.7582 14.6027 34.6995 14.3733 34.6569 14.192C34.6035 14.4053 34.5342 14.6507 34.4489 14.928C34.3742 15.2053 34.2995 15.4667 34.2249 15.712C34.1609 15.9573 34.1075 16.144 34.0649 16.272L33.0569 19.216H36.2729L35.2809 16.272ZM44.7673 12.576C45.7699 12.576 46.5966 12.6987 47.2473 12.944C47.8979 13.1893 48.3833 13.5627 48.7033 14.064C49.0233 14.5547 49.1833 15.1787 49.1833 15.936C49.1833 16.4907 49.0766 16.9653 48.8633 17.36C48.6606 17.7547 48.3939 18.0853 48.0633 18.352C47.7326 18.608 47.3753 18.816 46.9913 18.976L50.2713 24H47.9673L45.2313 19.488H43.5673V24H41.5193V12.576H44.7673ZM44.6393 14.288H43.5673V17.808H44.7033C45.2686 17.808 45.7273 17.7387 46.0793 17.6C46.4313 17.4613 46.6873 17.2587 46.8473 16.992C47.0179 16.7253 47.1033 16.3947 47.1033 16C47.1033 15.584 47.0126 15.2533 46.8313 15.008C46.6499 14.752 46.3779 14.5707 46.0153 14.464C45.6633 14.3467 45.2046 14.288 44.6393 14.288ZM55.959 24H53.911V14.304H50.631V12.576H59.239V14.304H55.959V24Z" fill="white"/>
<path d="M77.9434 21.4425L81.3784 18L77.9434 14.5575L79.0009 13.5L83.5009 18L79.0009 22.5L77.9434 21.4425Z" fill="#E6E5E1"/>
<rect x="1" y="0.5" width="96" height="35" rx="1.5" stroke="white" stroke-opacity="0.5"/>
</svg>
