<?xml version="1.0" encoding="utf-8"?>
<!-- Generator: Adobe Illustrator 23.0.1, SVG Export Plug-In . SVG Version: 6.00 Build 0)  -->
<svg version="1.1" id="settings_x5F_BTN" xmlns="http://www.w3.org/2000/svg" xmlns:xlink="http://www.w3.org/1999/xlink" x="0px"
	 y="0px" viewBox="0 0 100 100" style="enable-background:new 0 0 100 100;" xml:space="preserve">
<style type="text/css">
	.st0{fill:#FFFFFF;}
</style>
<path class="st0" d="M53.3,10l2.6,9.6c2.5,0.7,3.1,0.9,5.6,1.6l7.4-6.7c2.9,1.9,2.6,1.7,5.6,3.6l-3,9.5c1.7,1.9,2.1,2.5,3.8,4.4
	l9.8-1.6c1.5,3.2,1.3,2.8,2.7,6l-7.7,6.4c0.4,2.5,0.5,3.2,0.8,5.8l9.2,4c-0.5,3.5-0.4,3.1-0.9,6.5l-9.9,1.2c-1.1,2.3-1.4,3-2.4,5.3
	l5.6,8.3c-2.3,2.6-2,2.4-4.3,5l-9-4.3c-2.1,1.4-2.8,1.8-4.9,3.2l0.2,10c-3.3,1-3,0.9-6.3,1.9L52.9,81c-2.6,0-3.3,0-5.8,0l-5.2,8.5
	c-3.3-1-3-0.9-6.3-1.9l0.2-10c-2.1-1.4-2.8-1.8-4.9-3.2l-9,4.3c-2.3-2.6-2-2.4-4.3-5l5.6-8.3c-1.1-2.3-1.4-3-2.4-5.3l-9.9-1.2
	c-0.5-3.5-0.4-3.1-0.9-6.5l9.2-4c0.4-2.5,0.5-3.2,0.8-5.8l-7.7-6.4c1.5-3.2,1.3-2.8,2.7-6l9.8,1.6c1.7-1.9,2.1-2.5,3.8-4.4l-3-9.5
	c2.9-1.9,2.6-1.7,5.6-3.6l7.4,6.7c2.5-0.7,3.1-0.9,5.6-1.6l2.6-9.6C50.2,10,49.8,10,53.3,10z M64.7,49.8c0-8.1-6.6-14.7-14.7-14.7
	s-14.7,6.6-14.7,14.7S41.9,64.5,50,64.5S64.7,57.9,64.7,49.8z M64.1,69.1c5.9-4.3,9.7-11.3,9.7-19.1c0-7.9-3.8-14.8-9.7-19.1
	l-1.9,2.4c5.1,3.7,8.4,9.7,8.4,16.5c0,6.8-3.3,12.8-8.4,16.5L64.1,69.1z M37.9,66.3c-5.1-3.7-8.4-9.7-8.4-16.5
	c0-6.8,3.3-12.8,8.4-16.5l-1.9-2.4c-5.9,4.3-9.7,11.3-9.7,19.1c0,7.9,3.8,14.8,9.7,19.1L37.9,66.3z"/>
</svg>
