<?xml version="1.0" encoding="utf-8"?>
<!-- Generator: Adobe Illustrator 23.0.1, SVG Export Plug-In . SVG Version: 6.00 Build 0)  -->
<svg version="1.1" id="圖層_1" xmlns="http://www.w3.org/2000/svg" xmlns:xlink="http://www.w3.org/1999/xlink" x="0px" y="0px"
	 viewBox="0 0 23.3 23.3" style="enable-background:new 0 0 23.3 23.3;" xml:space="preserve">
<style type="text/css">
	.st0{fill:none;stroke:#000000;stroke-miterlimit:10;}
</style>
<path d="M19.2,20H17v1.9h4.2c0.4,0,0.8-0.3,0.8-0.8V17H20v2.2C20,19.6,19.6,20,19.2,20z"/>
<path d="M3.3,19.2V17H1.4v4.2c0,0.4,0.3,0.8,0.8,0.8h4.2V20H4.1C3.7,20,3.3,19.6,3.3,19.2z"/>
<path d="M6.4,3.3V1.4H2.1c-0.4,0-0.8,0.3-0.8,0.8v4.2h1.9V4.1c0-0.4,0.3-0.8,0.8-0.8H6.4z"/>
<path d="M20,4.1v2.2h1.9V2.1c0-0.4-0.3-0.8-0.8-0.8H17v1.9h2.2C19.6,3.3,20,3.7,20,4.1z"/>
<path class="st0" d="M17,14.1V9.2c0-0.4-0.2-0.8-0.6-1l-4.2-2.4c-0.4-0.2-0.8-0.2-1.2,0L6.8,8.2c-0.4,0.2-0.6,0.6-0.6,1v4.9
	c0,0.4,0.2,0.8,0.6,1l4.2,2.4c0.4,0.2,0.8,0.2,1.2,0l4.2-2.4C16.8,14.9,17,14.5,17,14.1z"/>
<polyline class="st0" points="6.3,8.5 11.6,11.6 17,8.5 "/>
<line class="st0" x1="11.6" y1="17.9" x2="11.6" y2="11.6"/>
</svg>
