<svg width="21" height="17" viewBox="0 0 21 17" fill="none" xmlns="http://www.w3.org/2000/svg">
<path d="M18.1816 4.68164V2.75L10.5 7.55664L2.81836 2.75V4.68164L10.5 9.44336L18.1816 4.68164ZM18.1816 0.818359C18.6908 0.818359 19.125 1.01302 19.4844 1.40234C19.8737 1.79167 20.0684 2.24089 20.0684 2.75V14.25C20.0684 14.7591 19.8737 15.2083 19.4844 15.5977C19.125 15.987 18.6908 16.1816 18.1816 16.1816H2.81836C2.30924 16.1816 1.86003 15.987 1.4707 15.5977C1.11133 15.2083 0.931641 14.7591 0.931641 14.25V2.75C0.931641 2.24089 1.11133 1.79167 1.4707 1.40234C1.86003 1.01302 2.30924 0.818359 2.81836 0.818359H18.1816Z" fill="#272727"/>
</svg>
