<svg width="18" height="19" viewBox="0 0 18 19" fill="none" xmlns="http://www.w3.org/2000/svg">
<path d="M17.9122 5.81279C17.9021 5.057 17.7606 4.30874 17.4941 3.60145C17.2629 3.00486 16.9098 2.46305 16.4574 2.01064C16.005 1.55823 15.4632 1.20516 14.8666 0.974C14.1684 0.71191 13.4308 0.570193 12.6852 0.554884C11.7252 0.511975 11.4209 0.5 8.98403 0.5C6.54718 0.5 6.23484 0.5 5.28185 0.554884C4.53658 0.570306 3.79933 0.712021 3.10145 0.974C2.50477 1.205 1.96288 1.55801 1.51044 2.01044C1.05801 2.46288 0.705001 3.00477 0.473999 3.60145C0.211385 4.29911 0.0699754 5.03653 0.055882 5.78185C0.0129726 6.74282 0 7.04718 0 9.48403C0 11.9209 -7.43488e-09 12.2322 0.055882 13.1862C0.0708504 13.9326 0.211553 14.6691 0.473999 15.3686C0.705388 15.9651 1.05866 16.5068 1.51125 16.959C1.96383 17.4113 2.50577 17.7641 3.10245 17.9951C3.79841 18.2677 4.5358 18.4196 5.28285 18.4441C6.24382 18.487 6.54818 18.5 8.98503 18.5C11.4219 18.5 11.7342 18.5 12.6872 18.4441C13.4328 18.4294 14.1704 18.288 14.8686 18.026C15.465 17.7946 16.0067 17.4414 16.4591 16.989C16.9115 16.5367 17.2646 15.995 17.4961 15.3985C17.7585 14.7 17.8992 13.9636 17.9142 13.2162C17.9571 12.2562 17.9701 11.9518 17.9701 9.51397C17.9681 7.07712 17.9681 6.76777 17.9122 5.81279ZM8.97805 14.0923C6.42943 14.0923 4.36479 12.0277 4.36479 9.47905C4.36479 6.93043 6.42943 4.86578 8.97805 4.86578C10.2016 4.86578 11.375 5.35182 12.2401 6.21698C13.1053 7.08213 13.5913 8.25553 13.5913 9.47905C13.5913 10.7026 13.1053 11.876 12.2401 12.7411C11.375 13.6063 10.2016 14.0923 8.97805 14.0923ZM13.7749 5.77087C13.6336 5.771 13.4937 5.74327 13.3631 5.68926C13.2325 5.63524 13.1139 5.55601 13.014 5.45609C12.9141 5.35618 12.8348 5.23754 12.7808 5.10696C12.7268 4.97639 12.6991 4.83645 12.6992 4.69514C12.6992 4.55394 12.727 4.41412 12.781 4.28367C12.8351 4.15322 12.9143 4.03469 13.0141 3.93484C13.114 3.835 13.2325 3.7558 13.3629 3.70176C13.4934 3.64773 13.6332 3.61991 13.7744 3.61991C13.9156 3.61991 14.0554 3.64773 14.1859 3.70176C14.3163 3.7558 14.4349 3.835 14.5347 3.93484C14.6346 4.03469 14.7138 4.15322 14.7678 4.28367C14.8218 4.41412 14.8497 4.55394 14.8497 4.69514C14.8497 5.28989 14.3687 5.77087 13.7749 5.77087Z" fill="#272727"/>
<path d="M8.97806 12.4758C10.6331 12.4758 11.9747 11.1342 11.9747 9.47916C11.9747 7.82414 10.6331 6.48248 8.97806 6.48248C7.32304 6.48248 5.98138 7.82414 5.98138 9.47916C5.98138 11.1342 7.32304 12.4758 8.97806 12.4758Z" fill="#272727"/>
</svg>
