<svg width="52" height="52" viewBox="0 0 52 52" fill="none" xmlns="http://www.w3.org/2000/svg">
<g clip-path="url(#clip0_374_3494)">
<path d="M25.1864 40.2117C25.9308 40.1078 26.6924 40.0905 27.4022 39.8828C28.1638 39.6751 28.4408 39.1385 28.2331 38.2902C27.7137 36.2476 26.0346 35.7456 24.3556 35.3475C22.9707 35.0186 21.5167 34.9494 20.0972 34.707C19.1971 34.5512 18.5047 34.0839 18.4528 32.9414C20.1319 32.3009 21.9494 31.9893 23.8189 32.1797C24.8576 32.2836 25.8615 32.5952 26.9002 32.6644C27.2464 32.6817 27.7657 32.2836 27.9734 31.9374C28.4754 31.1065 28.8216 30.2064 29.2717 29.2889C26.7271 28.5446 24.3382 27.8522 21.9494 27.1251C20.7204 26.7616 20.6858 26.7097 20.1665 25.3768C21.4474 24.7363 22.7457 24.8402 24.0613 25.1864C25.9135 25.6711 27.7657 26.1731 29.791 26.7097C29.8429 26.1038 29.9295 25.5499 29.9468 24.996C30.0333 23.213 30.1026 21.4128 30.1372 19.6298C30.1372 19.3355 30.0333 18.8681 29.8429 18.7643C28.9255 18.2969 27.9734 17.8815 26.9867 17.5526C26.3809 17.3448 25.8269 17.6045 25.4288 18.1584C25.1691 18.5046 24.8922 18.8335 24.5633 19.2317C23.767 18.0199 23.8362 16.8948 24.1825 15.8042C24.6152 14.3675 25.1518 12.9827 25.6538 11.5632C25.8789 10.9054 26.277 10.8535 26.9002 11.1305C27.4541 11.3728 28.0773 11.4247 27.8003 12.2729C27.7137 12.5153 27.6791 12.7749 27.6099 13.0173C27.2637 14.4194 27.7311 15.4407 29.0293 16.0985C29.7564 16.462 30.5353 16.739 31.2277 17.1544C33.2011 18.3315 33.807 20.1145 33.2703 22.5379C32.8895 24.217 32.6125 25.9307 32.3702 27.6271C32.3356 27.8868 32.6472 28.2676 32.8895 28.51C33.2876 28.9254 33.807 29.2197 34.1532 29.6697C35.036 30.8122 35.763 32.0586 36.6978 33.1318C37.4075 33.9454 37.0613 34.6205 36.767 35.3821C36.5939 35.8322 36.4035 36.2823 36.3342 36.7496C36.0919 38.6711 34.8109 39.727 33.2011 40.4713C31.9201 41.0599 30.9508 42.4447 30.9161 43.8468C30.8815 45.0066 30.795 46.1491 30.7257 47.2916C30.7257 47.3954 30.743 47.5339 30.6911 47.5859C29.6525 48.3821 29.9641 49.4034 30.1026 50.4594C30.1372 50.7882 29.7564 51.2556 29.4448 51.4807C29.0639 51.7576 28.5446 51.8442 28.0946 52.0173C27.3675 51.3768 27.6445 50.6152 27.7657 49.8535C28.0426 47.9494 28.3023 46.0452 28.5446 44.1411C28.5793 43.9507 28.5273 43.743 28.5619 43.5353C28.735 42.5313 28.4062 42.0639 27.4195 41.9081C27.1944 41.8735 26.9521 41.9081 26.7271 41.8908C25.4288 41.8735 25.0653 41.4407 25.1864 40.2117ZM31.9548 38.8442C33.6858 38.0825 34.4821 36.2649 34.1185 34.0665C33.807 32.2836 32.024 30.8642 29.9641 30.7949C29.739 33.6684 30.1199 36.3861 31.9548 38.8442Z" fill="white"/>
<path d="M1.45411 32.0586C0.0173556 32.3183 0.207769 31.072 0.207769 30.4661C0.155838 27.9042 0.31163 25.3596 0.346251 22.7977C0.363561 21.3436 0.173148 19.8895 0.190458 18.4528C0.225079 15.3023 -0.36347 12.1519 0.484733 9.0187C0.761697 8.0147 0.519353 6.88954 0.571284 5.8163C0.605904 5.26237 0.709766 4.72576 0.848248 4.18914C0.934799 3.87755 1.21176 3.6179 1.281 3.30631C1.62721 1.2637 3.21975 1.2637 4.77768 1.15984C8.1878 0.917499 11.5979 0.640535 15.008 0.380882C16.7218 0.2424 18.4182 -0.0172543 20.1146 0.0173663C21.6032 0.0519868 23.1265 0.27702 24.5633 0.657846C25.2384 0.848258 25.775 1.57529 26.4501 2.11191C25.2557 3.18514 24.0094 2.73508 22.815 2.71777C20.6685 2.68315 18.5393 2.70046 16.3929 2.71777C16.0986 2.71777 15.8043 2.75239 15.4927 2.75239C12.3942 2.75239 9.33027 2.90818 6.3356 3.82562C6.05863 3.91217 5.71243 3.77369 5.10657 3.56597C4.77768 4.93348 4.34492 6.28368 4.1372 7.6685C3.70444 10.3689 3.56596 13.1212 2.12921 15.5447C2.05997 15.6658 2.02535 15.8736 2.07728 15.9601C2.85624 17.2238 2.51003 18.5566 2.35424 19.8895C2.23307 20.8762 2.18114 21.8629 2.12921 22.8496C1.99072 25.325 1.86955 27.783 1.71376 30.2584C1.69645 30.8296 1.55797 31.4009 1.45411 32.0586Z" fill="white"/>
<path d="M22.6764 41.0426C22.3821 41.1811 21.9147 41.3368 21.3435 41.3715C20.98 41.3888 20.5645 41.3542 19.197 40.8868C19.0931 40.8522 17.8468 40.4021 16.185 39.502C15.6657 39.225 15.3195 39.0173 15.181 38.6018C15.0079 38.0998 15.233 37.5978 15.3541 37.3728C16.2023 37.0439 16.5485 37.1305 16.7043 37.2862C16.9813 37.5632 16.7563 38.1518 17.0332 38.2902C17.1371 38.3422 17.2929 38.2902 17.5871 38.221C17.7256 38.1864 17.8295 38.1518 17.8987 38.1171C18.3661 37.944 18.6084 37.8575 18.7123 37.8402C19.197 37.7363 19.6298 38.0133 19.8375 38.1345C20.0625 38.2729 20.478 38.5326 20.5818 38.9653C20.6511 39.2769 20.6337 39.5885 20.6337 39.5885C20.6164 39.7962 20.5645 39.8828 20.6164 39.9347C20.703 40.0213 20.9453 39.8135 21.3262 39.727C21.3954 39.7097 21.8282 39.6231 22.157 39.8135C22.5552 39.9693 22.7283 40.4713 22.6764 41.0426Z" fill="white"/>
<path d="M15.9601 18.193C14.9907 18.5393 14.1425 19.0932 13.3289 19.0759C11.8922 19.0239 10.4554 18.6258 9.01867 18.3488C8.84557 18.3142 8.5686 18.1065 8.5686 18.0026C8.58591 17.7776 8.74171 17.4314 8.8975 17.3795C9.76301 17.1198 10.6458 16.8948 11.5287 16.7563C12.1172 16.6697 12.7231 16.739 13.3116 16.739C14.2983 16.739 15.1119 17.0506 15.9601 18.193Z" fill="white"/>
<path d="M8.20508 9.86685C9.29562 9.55526 10.3342 9.00134 11.3555 9.01865C12.6538 9.03596 14.004 9.43409 14.8522 10.6458C12.3595 12.3076 8.62052 12.0306 8.20508 9.86685Z" fill="white"/>
<path d="M39.9693 50.7363H39.5885L38.8269 49.0746C38.4287 48.209 38.0306 47.3608 37.6498 46.4953C37.0093 47.9148 36.3515 49.3342 35.711 50.7536H35.3302L37.5459 45.8895H37.7709L39.9693 50.7363Z" fill="white"/>
<path d="M43.2755 45.9241C43.8295 45.9241 44.1237 45.9414 44.4353 46.0626C44.8161 46.2183 45.1623 46.6165 45.1623 47.1704C45.1623 47.759 44.8161 48.1398 44.2449 48.3475C44.5219 48.5206 44.643 48.711 45.7509 50.4247L45.9759 50.7536H45.5259L44.5911 49.2996C44.4353 49.0745 44.193 48.7283 44.0026 48.5899C43.7948 48.4341 43.5525 48.4341 43.2063 48.4341H42.687V50.7536H42.3062V45.9241H43.2755ZM42.7043 46.2357V48.1225H43.2236C43.7775 48.1225 44.0372 48.0879 44.3141 47.9667C44.5738 47.8455 44.7469 47.4993 44.7469 47.1704C44.7469 46.8415 44.5738 46.5299 44.2968 46.3915C44.141 46.3049 43.916 46.2357 43.3101 46.2357H42.7043Z" fill="white"/>
<path d="M51.2037 46.2357H49.4035V50.7536H49.0227V46.2357H47.2051V45.9241H51.2037V46.2357Z" fill="white"/>
</g>
<defs>
<clipPath id="clip0_374_3494">
<rect width="52" height="52" fill="white"/>
</clipPath>
</defs>
</svg>
