<svg width="52" height="40" viewBox="0 0 52 40" fill="none" xmlns="http://www.w3.org/2000/svg">
<path d="M0 33V7C0 5.27609 0.68482 3.62279 1.90381 2.40381C3.12279 1.18482 4.77609 0.5 6.5 0.5H45.5C47.2239 0.5 48.8772 1.18482 50.0962 2.40381C51.3152 3.62279 52 5.27609 52 7V33C52 34.7239 51.3152 36.3772 50.0962 37.5962C48.8772 38.8152 47.2239 39.5 45.5 39.5H6.5C4.77609 39.5 3.12279 38.8152 1.90381 37.5962C0.68482 36.3772 0 34.7239 0 33ZM22.0675 10.5522C21.8245 10.3792 21.5386 10.2765 21.2411 10.2552C20.9436 10.2338 20.6459 10.2948 20.3808 10.4314C20.1156 10.568 19.8932 10.775 19.7378 11.0296C19.5825 11.2842 19.5002 11.5767 19.5 11.875V28.125C19.5002 28.4233 19.5825 28.7158 19.7378 28.9704C19.8932 29.225 20.1156 29.432 20.3808 29.5686C20.6459 29.7052 20.9436 29.7662 21.2411 29.7448C21.5386 29.7235 21.8245 29.6208 22.0675 29.4477L33.4425 21.3227C33.6531 21.1724 33.8249 20.974 33.9433 20.7439C34.0618 20.5138 34.1236 20.2588 34.1236 20C34.1236 19.7412 34.0618 19.4862 33.9433 19.2561C33.8249 19.026 33.6531 18.8276 33.4425 18.6772L22.0675 10.5522Z" fill="white"/>
</svg>
